# This file uses centimeters as units for non-parametric coordinates.

mtllib Cracked_Wall.mtl
g default
v -7.549280 0.075897 0.500000
v 7.260067 0.075897 0.500000
v -7.549280 6.076072 0.500000
v 7.260067 6.076072 0.500000
v -7.549280 6.076072 -0.500000
v 7.260067 6.076072 -0.500000
v -7.549280 0.075897 -0.500000
v 7.260067 0.075897 -0.500000
v 1.112662 0.812919 0.500000
v 1.112662 0.812919 -0.500000
v 1.112662 6.076072 -0.500000
v 1.112662 6.076072 0.500000
v -1.333693 0.241874 0.500000
v -1.333693 0.241874 -0.500000
v -1.287545 6.076072 -0.500000
v -1.287545 6.076072 0.500000
v -7.549281 1.728263 0.500000
v 7.260067 1.728263 0.500000
v 7.260067 1.728263 -0.500000
v -7.549280 1.728263 -0.500000
v -1.101518 0.632911 0.376991
v -1.101518 0.632911 -0.455261
v -0.887793 6.076072 -0.500000
v -0.887793 6.076072 0.500000
v -0.435292 1.269441 -0.500000
v -0.435292 1.269441 0.352486
v -0.435292 6.076072 0.500000
v -0.435292 6.076072 -0.500000
v 0.351415 1.269441 -0.416259
v 0.351415 1.318383 0.353246
v 0.351415 6.076072 0.500000
v 0.351415 6.076072 -0.500000
v 0.897911 0.991144 -0.399577
v 0.897911 0.991144 0.409978
v 0.970933 6.076072 0.500000
v 0.970933 6.076072 -0.500000
v 0.496296 1.078068 -0.428215
v 0.634970 6.076072 -0.500000
v 0.634970 6.076072 0.500000
v 0.496296 1.078068 0.456849
v -0.768441 0.910470 0.449719
v -0.768441 0.910470 -0.500000
v -0.645583 6.076072 -0.500000
v -0.645583 6.076072 0.500000
v -1.390269 0.075897 0.500000
v -1.390269 0.075897 -0.500000
v -1.390269 6.076072 -0.500000
v -1.390269 6.076072 0.500000
v 1.286624 0.075897 0.500000
v 1.286624 6.076072 0.500000
v 1.286624 6.076072 -0.500000
v 1.286624 0.075897 -0.500000
vt 0.375000 0.000000
vt 0.625000 0.000000
vt 0.375000 0.250000
vt 0.625000 0.250000
vt 0.375000 0.500000
vt 0.625000 0.500000
vt 0.375000 0.750000
vt 0.625000 0.750000
vt 0.375000 1.000000
vt 0.625000 1.000000
vt 0.875000 0.000000
vt 0.875000 0.250000
vt 0.125000 0.000000
vt 0.125000 0.250000
vt 0.521224 0.000000
vt 0.521224 1.000000
vt 0.521224 0.750000
vt 0.521224 0.500000
vt 0.521224 0.250000
vt 0.480706 0.000000
vt 0.480706 1.000000
vt 0.480706 0.750000
vt 0.480706 0.500000
vt 0.480706 0.250000
vt 0.375000 0.044569
vt 0.625000 0.044569
vt 0.625000 0.705431
vt 0.875000 0.044569
vt 0.125000 0.044569
vt 0.375000 0.705431
vt 0.487454 0.000000
vt 0.487454 0.833451
vt 0.487454 0.750000
vt 0.487454 0.500000
vt 0.487454 0.250000
vt 0.495093 0.750000
vt 0.495093 0.000000
vt 0.495093 0.644925
vt 0.495093 0.250000
vt 0.495093 0.500000
vt 0.508373 0.750000
vt 0.508373 0.000000
vt 0.508373 0.317159
vt 0.508373 0.250000
vt 0.508373 0.500000
vt 0.518832 0.750000
vt 0.518832 0.000000
vt 0.518832 0.059049
vt 0.518832 0.250000
vt 0.518832 0.500000
vt 0.513160 0.750000
vt 0.513160 0.500000
vt 0.513160 0.250000
vt 0.513160 0.000000
vt 0.513160 0.199021
vt 0.491543 0.000000
vt 0.491543 0.732539
vt 0.491543 0.750000
vt 0.491543 0.500000
vt 0.491543 0.250000
vt 0.478972 0.000000
vt 0.478972 1.000000
vt 0.478972 0.750000
vt 0.478972 0.500000
vt 0.478972 0.250000
vt 0.524161 0.000000
vt 0.524161 1.000000
vt 0.524161 0.250000
vt 0.524161 0.500000
vt 0.524161 0.750000
vn 0.000000 1.000000 0.000000
vn 0.000000 1.000000 0.000000
vn 0.000000 1.000000 0.000000
vn 0.000000 1.000000 0.000000
vn 0.000000 1.000000 0.000000
vn 0.000000 1.000000 0.000000
vn 0.000000 1.000000 0.000000
vn 0.000000 1.000000 0.000000
vn 0.000000 1.000000 0.000000
vn 0.000000 1.000000 0.000000
vn 0.000000 1.000000 0.000000
vn 0.000000 1.000000 0.000000
vn 0.000000 1.000000 0.000000
vn 0.000000 1.000000 0.000000
vn 0.000000 1.000000 0.000000
vn 0.000000 1.000000 0.000000
vn 0.000000 1.000000 0.000000
vn 0.000000 1.000000 0.000000
vn 0.000000 1.000000 0.000000
vn 0.000000 1.000000 0.000000
vn 0.000000 1.000000 0.000000
vn 0.000000 1.000000 0.000000
vn 0.000000 1.000000 0.000000
vn 0.000000 1.000000 0.000000
vn -0.973256 -0.229722 0.000000
vn -0.973256 -0.229722 0.000000
vn -0.119039 -0.992890 0.000000
vn -0.119039 -0.992890 0.000000
vn 1.000000 0.000000 -0.000000
vn 1.000000 -0.000000 -0.000000
vn 1.000000 0.000000 -0.000000
vn 1.000000 0.000000 -0.000000
vn -1.000000 0.000000 -0.000000
vn -1.000000 0.000000 -0.000000
vn -1.000000 0.000000 -0.000000
vn -1.000000 0.000000 -0.000000
vn 0.000627 -0.002799 0.999996
vn 0.000627 -0.002799 0.999996
vn 0.000627 -0.002799 0.999996
vn 0.000627 -0.002799 0.999996
vn 0.000627 -0.002799 0.999996
vn 0.000627 -0.002799 0.999996
vn 0.000627 -0.002799 0.999996
vn 0.000627 -0.002799 0.999996
vn 0.000627 -0.002799 0.999996
vn 0.000627 -0.002799 0.999996
vn 0.000627 -0.002799 0.999996
vn 0.000627 -0.002799 0.999996
vn 0.000627 -0.002799 0.999996
vn 0.000627 -0.002799 0.999996
vn 0.000627 -0.002799 0.999996
vn 0.000627 -0.002799 0.999996
vn 0.000627 -0.002799 0.999996
vn 0.000627 -0.002799 0.999996
vn 0.000627 -0.002799 0.999996
vn 0.000627 -0.002799 0.999996
vn 0.000627 -0.002799 0.999996
vn 0.000627 -0.002799 0.999996
vn 0.000627 -0.002799 0.999996
vn 0.000627 -0.002799 0.999996
vn 0.000627 -0.002799 0.999996
vn 0.000627 -0.002799 0.999996
vn 0.026694 -0.999644 0.000000
vn 0.026694 -0.999644 0.000000
vn 0.946524 -0.322634 0.000000
vn 0.946524 -0.322634 0.000000
vn 1.000000 -0.000000 -0.000000
vn 1.000000 -0.000000 -0.000000
vn -0.000189 -0.001182 -0.999999
vn -0.000189 -0.001182 -0.999999
vn -0.000189 -0.001182 -0.999999
vn -0.000189 -0.001182 -0.999999
vn -0.000189 -0.001182 -0.999999
vn -0.000189 -0.001182 -0.999999
vn -0.000189 -0.001182 -0.999999
vn -0.000189 -0.001182 -0.999999
vn -0.000189 -0.001182 -0.999999
vn -0.000189 -0.001182 -0.999999
vn -0.000189 -0.001182 -0.999999
vn -0.000189 -0.001182 -0.999999
vn -0.000189 -0.001182 -0.999999
vn -0.000189 -0.001182 -0.999999
vn -0.000189 -0.001182 -0.999999
vn -0.000189 -0.001182 -0.999999
vn -0.000189 -0.001182 -0.999999
vn -0.000189 -0.001182 -0.999999
vn -0.000189 -0.001182 -0.999999
vn -0.000189 -0.001182 -0.999999
vn -0.000189 -0.001182 -0.999999
vn -0.000189 -0.001182 -0.999999
vn -0.000189 -0.001182 -0.999999
vn -0.000189 -0.001182 -0.999999
vn -0.000189 -0.001182 -0.999999
vn -0.000189 -0.001182 -0.999999
vn -1.000000 0.000000 -0.000000
vn -1.000000 0.000000 -0.000000
vn 0.355937 -0.934322 0.018738
vn 0.364929 -0.930854 0.018371
vn 0.690575 -0.723261 0.000000
vn 0.692624 -0.721298 0.000000
vn 0.765040 -0.643983 0.000000
vn 0.768215 -0.640192 0.000000
vn 0.859858 -0.510534 0.000000
vn 0.859858 -0.510534 0.000000
vn -0.206932 -0.977913 0.029416
vn -0.242984 -0.969592 0.029151
vn -0.419330 -0.907834 0.000000
vn -0.414482 -0.910057 0.000000
vn -0.452913 -0.891535 0.005995
vn -0.484460 -0.874787 0.006806
vn -0.638632 -0.769512 0.000000
vn -0.638632 -0.769512 0.000000
vn -0.000000 -1.000000 0.000000
vn -0.000000 -1.000000 0.000000
vn 0.000000 -1.000000 0.000000
vn 0.000000 -1.000000 0.000000
s off
g pCube1
usemtl initialShadingGroup
f 51/69/1 11/18/2 36/50/3 38/52/4 32/45/5 28/40/6 43/59/7 23/34/8 15/23/9 47/64/10 5/5/11 3/3/12 48/65/13 16/24/14 24/35/15 44/60/16 27/39/17 31/44/18 39/53/19 35/49/20 12/19/21 50/68/22 4/4/23 6/6/24
s 1
f 9/16/25 10/17/26 52/70/27 49/67/28
s 2
f 18/26/29 19/28/30 6/12/31 4/4/32
s 3
f 20/29/33 17/25/34 3/3/35 5/14/36
s off
f 18/26/37 4/4/38 50/68/39 12/19/40 35/49/41 39/53/42 31/44/43 27/39/44 44/60/45 24/35/46 16/24/47 48/65/48 3/3/49 17/25/50 1/1/51 45/61/52 13/20/53 21/31/54 41/56/55 26/37/56 30/42/57 40/54/58 34/47/59 9/15/60 49/66/61 2/2/62
s 4
f 45/62/63 46/63/64 14/22/65 13/21/66
s 2
f 2/2/67 8/11/68 19/28/30 18/26/29
s off
f 46/63/69 7/7/70 20/30/71 5/5/72 47/64/73 15/23/74 23/34/75 43/59/76 28/40/77 32/45/78 38/52/79 36/50/80 11/18/81 51/69/82 6/6/83 19/27/84 8/8/85 52/70/86 10/17/87 33/46/88 37/51/89 29/41/90 25/36/91 42/58/92 22/33/93 14/22/94
s 3
f 7/13/95 1/1/96 17/25/34 20/29/33
s 5
f 25/36/97 26/38/98 41/57/99 42/58/100
f 22/33/101 21/32/102 13/21/103 14/22/104
f 29/41/105 30/43/106 26/38/98 25/36/97
f 33/46/107 34/48/108 40/55/109 37/51/110
f 10/17/111 9/15/112 34/48/108 33/46/107
f 37/51/110 40/55/109 30/43/106 29/41/105
f 42/58/100 41/57/99 21/32/102 22/33/101
s 4
f 7/7/113 46/63/64 45/62/63 1/9/114
s 1
f 49/67/28 52/70/27 8/8/115 2/10/116
